<mxfile host="app.diagrams.net" agent="Mozilla/5.0 (X11; Linux x86_64; rv:131.0) Gecko/20100101 Firefox/131.0" version="24.8.6">
  <diagram name="Page-1" id="CewpsjSTCl-pc4d_EMi_">
    <mxGraphModel dx="3457" dy="1438" grid="1" gridSize="10" guides="1" tooltips="1" connect="1" arrows="1" fold="1" page="1" pageScale="1" pageWidth="850" pageHeight="1100" math="0" shadow="0">
      <root>
        <mxCell id="0" />
        <mxCell id="1" parent="0" />
        <mxCell id="rOw19jKcxJnXFdSq0Atq-2" value="" style="rounded=1;whiteSpace=wrap;html=1;fillColor=#d5e8d4;strokeColor=#82b366;" vertex="1" parent="1">
          <mxGeometry x="-130" y="20" width="430" height="530" as="geometry" />
        </mxCell>
        <mxCell id="vZUjrlELO1Ofky0nEN63-1" value="&lt;div&gt;&lt;b&gt;DOME Access-Node&lt;/b&gt;&lt;/div&gt;&lt;div&gt;&lt;br&gt;&lt;/div&gt;&lt;div&gt;&lt;br&gt;&lt;/div&gt;&lt;div&gt;&lt;br&gt;&lt;/div&gt;&lt;div&gt;&lt;br&gt;&lt;/div&gt;&lt;div&gt;&lt;br&gt;&lt;/div&gt;&lt;div&gt;&lt;br&gt;&lt;/div&gt;&lt;div&gt;&lt;br&gt;&lt;/div&gt;&lt;div&gt;&lt;br&gt;&lt;/div&gt;&lt;div&gt;&lt;br&gt;&lt;/div&gt;&lt;div&gt;&lt;br&gt;&lt;/div&gt;&lt;div&gt;&lt;br&gt;&lt;/div&gt;&lt;div&gt;&lt;br&gt;&lt;/div&gt;&lt;div&gt;&lt;br&gt;&lt;/div&gt;&lt;div&gt;&lt;br&gt;&lt;/div&gt;&lt;div&gt;&lt;br&gt;&lt;/div&gt;" style="rounded=0;whiteSpace=wrap;html=1;" parent="1" vertex="1">
          <mxGeometry x="-90" y="140" width="350" height="250" as="geometry" />
        </mxCell>
        <mxCell id="vZUjrlELO1Ofky0nEN63-2" value="TMForum-API" style="rounded=1;whiteSpace=wrap;html=1;" parent="1" vertex="1">
          <mxGeometry x="120" y="190" width="120" height="60" as="geometry" />
        </mxCell>
        <mxCell id="vZUjrlELO1Ofky0nEN63-3" value="NGSI-LD ContextBroker" style="rounded=1;whiteSpace=wrap;html=1;" parent="1" vertex="1">
          <mxGeometry x="120" y="300" width="120" height="60" as="geometry" />
        </mxCell>
        <mxCell id="vZUjrlELO1Ofky0nEN63-4" value="Blockchain-Connector" style="rounded=1;whiteSpace=wrap;html=1;" parent="1" vertex="1">
          <mxGeometry x="-60" y="300" width="120" height="60" as="geometry" />
        </mxCell>
        <mxCell id="vZUjrlELO1Ofky0nEN63-5" value="" style="endArrow=classic;startArrow=classic;html=1;rounded=0;entryX=0;entryY=0.5;entryDx=0;entryDy=0;exitX=1;exitY=0.5;exitDx=0;exitDy=0;" parent="1" source="vZUjrlELO1Ofky0nEN63-4" target="vZUjrlELO1Ofky0nEN63-3" edge="1">
          <mxGeometry width="50" height="50" relative="1" as="geometry">
            <mxPoint x="-200" y="530" as="sourcePoint" />
            <mxPoint x="-150" y="480" as="targetPoint" />
          </mxGeometry>
        </mxCell>
        <mxCell id="vZUjrlELO1Ofky0nEN63-6" value="" style="endArrow=classic;startArrow=classic;html=1;rounded=0;entryX=0.5;entryY=0;entryDx=0;entryDy=0;exitX=0.5;exitY=1;exitDx=0;exitDy=0;" parent="1" source="vZUjrlELO1Ofky0nEN63-2" target="vZUjrlELO1Ofky0nEN63-3" edge="1">
          <mxGeometry width="50" height="50" relative="1" as="geometry">
            <mxPoint x="85" y="260" as="sourcePoint" />
            <mxPoint x="180" y="310" as="targetPoint" />
            <Array as="points">
              <mxPoint x="180" y="270" />
            </Array>
          </mxGeometry>
        </mxCell>
        <mxCell id="vZUjrlELO1Ofky0nEN63-7" value="" style="image;aspect=fixed;html=1;points=[];align=center;fontSize=12;image=img/lib/azure2/blockchain/Azure_Blockchain_Service.svg;" parent="1" vertex="1">
          <mxGeometry x="-34" y="420" width="68" height="68" as="geometry" />
        </mxCell>
        <mxCell id="vZUjrlELO1Ofky0nEN63-8" value="" style="endArrow=classic;startArrow=classic;html=1;rounded=0;entryX=0.5;entryY=1;entryDx=0;entryDy=0;exitX=0.5;exitY=-0.015;exitDx=0;exitDy=0;exitPerimeter=0;" parent="1" source="vZUjrlELO1Ofky0nEN63-7" target="vZUjrlELO1Ofky0nEN63-4" edge="1">
          <mxGeometry width="50" height="50" relative="1" as="geometry">
            <mxPoint x="-200" y="520" as="sourcePoint" />
            <mxPoint x="-150" y="470" as="targetPoint" />
          </mxGeometry>
        </mxCell>
        <mxCell id="vZUjrlELO1Ofky0nEN63-9" value="" style="endArrow=classic;html=1;rounded=0;entryX=0.5;entryY=0;entryDx=0;entryDy=0;" parent="1" target="vZUjrlELO1Ofky0nEN63-2" edge="1">
          <mxGeometry width="50" height="50" relative="1" as="geometry">
            <mxPoint x="180" y="100" as="sourcePoint" />
            <mxPoint x="190" y="40" as="targetPoint" />
          </mxGeometry>
        </mxCell>
        <mxCell id="vZUjrlELO1Ofky0nEN63-10" value="" style="endArrow=classic;html=1;rounded=0;" parent="1" target="vZUjrlELO1Ofky0nEN63-3" edge="1">
          <mxGeometry width="50" height="50" relative="1" as="geometry">
            <mxPoint x="180" y="430" as="sourcePoint" />
            <mxPoint x="210" y="420" as="targetPoint" />
          </mxGeometry>
        </mxCell>
        <mxCell id="vZUjrlELO1Ofky0nEN63-11" value="Access Node" style="rounded=1;whiteSpace=wrap;html=1;dashed=1;" parent="1" vertex="1">
          <mxGeometry x="120" y="428" width="120" height="60" as="geometry" />
        </mxCell>
        <mxCell id="vZUjrlELO1Ofky0nEN63-12" value="Access Node" style="rounded=1;whiteSpace=wrap;html=1;dashed=1;" parent="1" vertex="1">
          <mxGeometry x="130" y="438" width="120" height="60" as="geometry" />
        </mxCell>
        <mxCell id="vZUjrlELO1Ofky0nEN63-13" value="Access Node" style="rounded=1;whiteSpace=wrap;html=1;dashed=1;" parent="1" vertex="1">
          <mxGeometry x="140" y="448" width="120" height="60" as="geometry" />
        </mxCell>
        <mxCell id="vZUjrlELO1Ofky0nEN63-14" value="Access Node" style="rounded=1;whiteSpace=wrap;html=1;dashed=1;" parent="1" vertex="1">
          <mxGeometry x="150" y="458" width="120" height="60" as="geometry" />
        </mxCell>
        <mxCell id="vZUjrlELO1Ofky0nEN63-15" value="Marketplace" style="rounded=1;whiteSpace=wrap;html=1;dashed=1;" parent="1" vertex="1">
          <mxGeometry x="120" y="40" width="120" height="60" as="geometry" />
        </mxCell>
        <mxCell id="rOw19jKcxJnXFdSq0Atq-1" value="&lt;div&gt;&lt;b&gt;Data Space Connector&lt;/b&gt;&lt;/div&gt;&lt;div&gt;&lt;br&gt;&lt;/div&gt;&lt;div&gt;&lt;br&gt;&lt;/div&gt;&lt;div&gt;&lt;br&gt;&lt;/div&gt;&lt;div&gt;&lt;br&gt;&lt;/div&gt;&lt;div&gt;&lt;br&gt;&lt;/div&gt;&lt;div&gt;&lt;br&gt;&lt;/div&gt;&lt;div&gt;&lt;br&gt;&lt;/div&gt;&lt;div&gt;&lt;br&gt;&lt;/div&gt;&lt;div&gt;&lt;br&gt;&lt;/div&gt;&lt;div&gt;&lt;br&gt;&lt;/div&gt;&lt;div&gt;&lt;br&gt;&lt;/div&gt;&lt;div&gt;&lt;br&gt;&lt;/div&gt;&lt;div&gt;&lt;br&gt;&lt;/div&gt;&lt;div&gt;&lt;br&gt;&lt;/div&gt;" style="rounded=0;whiteSpace=wrap;html=1;fillColor=#FFFEEB;" vertex="1" parent="1">
          <mxGeometry x="370" y="190" width="470" height="240" as="geometry" />
        </mxCell>
        <mxCell id="rOw19jKcxJnXFdSq0Atq-3" value="Contract Management" style="rounded=1;whiteSpace=wrap;html=1;" vertex="1" parent="1">
          <mxGeometry x="410" y="240" width="120" height="60" as="geometry" />
        </mxCell>
        <mxCell id="rOw19jKcxJnXFdSq0Atq-4" value="" style="endArrow=none;html=1;rounded=0;entryX=0;entryY=0.5;entryDx=0;entryDy=0;exitX=1;exitY=0.5;exitDx=0;exitDy=0;" edge="1" parent="1" source="vZUjrlELO1Ofky0nEN63-2" target="rOw19jKcxJnXFdSq0Atq-3">
          <mxGeometry width="50" height="50" relative="1" as="geometry">
            <mxPoint x="320" y="500" as="sourcePoint" />
            <mxPoint x="370" y="450" as="targetPoint" />
            <Array as="points">
              <mxPoint x="320" y="220" />
              <mxPoint x="320" y="270" />
            </Array>
          </mxGeometry>
        </mxCell>
        <mxCell id="rOw19jKcxJnXFdSq0Atq-5" value="&amp;lt;event listener&amp;gt;" style="edgeLabel;html=1;align=center;verticalAlign=middle;resizable=0;points=[];" vertex="1" connectable="0" parent="rOw19jKcxJnXFdSq0Atq-4">
          <mxGeometry y="3" relative="1" as="geometry">
            <mxPoint x="5" y="3" as="offset" />
          </mxGeometry>
        </mxCell>
        <mxCell id="rOw19jKcxJnXFdSq0Atq-6" value="Trusted Issuers List" style="rounded=1;whiteSpace=wrap;html=1;" vertex="1" parent="1">
          <mxGeometry x="410" y="340" width="120" height="60" as="geometry" />
        </mxCell>
        <mxCell id="rOw19jKcxJnXFdSq0Atq-7" value="Data Service" style="rounded=1;whiteSpace=wrap;html=1;fillColor=#f8cecc;strokeColor=#b85450;" vertex="1" parent="1">
          <mxGeometry x="700" y="340" width="120" height="60" as="geometry" />
        </mxCell>
        <mxCell id="rOw19jKcxJnXFdSq0Atq-8" value="Verifier" style="rounded=1;whiteSpace=wrap;html=1;" vertex="1" parent="1">
          <mxGeometry x="560" y="240" width="120" height="60" as="geometry" />
        </mxCell>
        <mxCell id="rOw19jKcxJnXFdSq0Atq-9" value="Credentials Config Service" style="rounded=1;whiteSpace=wrap;html=1;" vertex="1" parent="1">
          <mxGeometry x="560" y="340" width="120" height="60" as="geometry" />
        </mxCell>
        <mxCell id="rOw19jKcxJnXFdSq0Atq-10" value="Consumer" style="shape=umlActor;verticalLabelPosition=bottom;verticalAlign=top;html=1;outlineConnect=0;" vertex="1" parent="1">
          <mxGeometry x="600" y="40" width="30" height="60" as="geometry" />
        </mxCell>
        <mxCell id="rOw19jKcxJnXFdSq0Atq-12" value="&lt;div&gt;Authorization&lt;/div&gt;&lt;div&gt;Components&lt;/div&gt;" style="rounded=1;whiteSpace=wrap;html=1;" vertex="1" parent="1">
          <mxGeometry x="700" y="240" width="120" height="60" as="geometry" />
        </mxCell>
        <mxCell id="rOw19jKcxJnXFdSq0Atq-15" value="" style="endArrow=classic;html=1;rounded=0;exitX=0.5;exitY=1;exitDx=0;exitDy=0;" edge="1" parent="1" source="rOw19jKcxJnXFdSq0Atq-3" target="rOw19jKcxJnXFdSq0Atq-6">
          <mxGeometry width="50" height="50" relative="1" as="geometry">
            <mxPoint x="410" y="560" as="sourcePoint" />
            <mxPoint x="460" y="510" as="targetPoint" />
          </mxGeometry>
        </mxCell>
        <mxCell id="rOw19jKcxJnXFdSq0Atq-16" value="register consumer" style="edgeLabel;html=1;align=center;verticalAlign=middle;resizable=0;points=[];" vertex="1" connectable="0" parent="rOw19jKcxJnXFdSq0Atq-15">
          <mxGeometry x="-0.05" y="-2" relative="1" as="geometry">
            <mxPoint as="offset" />
          </mxGeometry>
        </mxCell>
        <mxCell id="rOw19jKcxJnXFdSq0Atq-17" value="" style="endArrow=none;html=1;rounded=0;entryX=0.5;entryY=1;entryDx=0;entryDy=0;exitX=1;exitY=0.5;exitDx=0;exitDy=0;" edge="1" parent="1" source="rOw19jKcxJnXFdSq0Atq-6" target="rOw19jKcxJnXFdSq0Atq-8">
          <mxGeometry width="50" height="50" relative="1" as="geometry">
            <mxPoint x="460" y="570" as="sourcePoint" />
            <mxPoint x="510" y="520" as="targetPoint" />
            <Array as="points">
              <mxPoint x="550" y="370" />
              <mxPoint x="550" y="320" />
              <mxPoint x="620" y="320" />
            </Array>
          </mxGeometry>
        </mxCell>
        <mxCell id="rOw19jKcxJnXFdSq0Atq-18" value="" style="endArrow=none;html=1;rounded=0;entryX=0.5;entryY=1;entryDx=0;entryDy=0;exitX=0.5;exitY=0;exitDx=0;exitDy=0;" edge="1" parent="1" source="rOw19jKcxJnXFdSq0Atq-9" target="rOw19jKcxJnXFdSq0Atq-8">
          <mxGeometry width="50" height="50" relative="1" as="geometry">
            <mxPoint x="590" y="550" as="sourcePoint" />
            <mxPoint x="640" y="500" as="targetPoint" />
          </mxGeometry>
        </mxCell>
        <mxCell id="rOw19jKcxJnXFdSq0Atq-19" value="" style="endArrow=classic;html=1;rounded=0;exitX=0.5;exitY=1;exitDx=0;exitDy=0;entryX=0.5;entryY=0;entryDx=0;entryDy=0;" edge="1" parent="1" source="rOw19jKcxJnXFdSq0Atq-12" target="rOw19jKcxJnXFdSq0Atq-7">
          <mxGeometry width="50" height="50" relative="1" as="geometry">
            <mxPoint x="960" y="280" as="sourcePoint" />
            <mxPoint x="1010" y="230" as="targetPoint" />
          </mxGeometry>
        </mxCell>
        <mxCell id="rOw19jKcxJnXFdSq0Atq-20" value="" style="endArrow=classic;html=1;rounded=0;" edge="1" parent="1" source="rOw19jKcxJnXFdSq0Atq-10" target="vZUjrlELO1Ofky0nEN63-15">
          <mxGeometry width="50" height="50" relative="1" as="geometry">
            <mxPoint x="370" y="80" as="sourcePoint" />
            <mxPoint x="420" y="30" as="targetPoint" />
          </mxGeometry>
        </mxCell>
        <mxCell id="rOw19jKcxJnXFdSq0Atq-21" value="buys access" style="edgeLabel;html=1;align=center;verticalAlign=middle;resizable=0;points=[];" vertex="1" connectable="0" parent="rOw19jKcxJnXFdSq0Atq-20">
          <mxGeometry x="-0.1574" y="-1" relative="1" as="geometry">
            <mxPoint as="offset" />
          </mxGeometry>
        </mxCell>
        <mxCell id="rOw19jKcxJnXFdSq0Atq-22" value="" style="endArrow=classic;html=1;rounded=0;entryX=0.5;entryY=0;entryDx=0;entryDy=0;" edge="1" parent="1" source="rOw19jKcxJnXFdSq0Atq-10" target="rOw19jKcxJnXFdSq0Atq-12">
          <mxGeometry width="50" height="50" relative="1" as="geometry">
            <mxPoint x="720" y="110" as="sourcePoint" />
            <mxPoint x="770" y="60" as="targetPoint" />
            <Array as="points">
              <mxPoint x="760" y="70" />
            </Array>
          </mxGeometry>
        </mxCell>
        <mxCell id="rOw19jKcxJnXFdSq0Atq-25" value="access service" style="edgeLabel;html=1;align=center;verticalAlign=middle;resizable=0;points=[];" vertex="1" connectable="0" parent="rOw19jKcxJnXFdSq0Atq-22">
          <mxGeometry x="0.3233" y="3" relative="1" as="geometry">
            <mxPoint as="offset" />
          </mxGeometry>
        </mxCell>
        <mxCell id="rOw19jKcxJnXFdSq0Atq-23" value="" style="endArrow=classic;html=1;rounded=0;" edge="1" parent="1" target="rOw19jKcxJnXFdSq0Atq-8">
          <mxGeometry width="50" height="50" relative="1" as="geometry">
            <mxPoint x="630" y="70" as="sourcePoint" />
            <mxPoint x="870" y="90" as="targetPoint" />
            <Array as="points">
              <mxPoint x="680" y="70" />
              <mxPoint x="680" y="160" />
              <mxPoint x="680" y="220" />
              <mxPoint x="620" y="220" />
            </Array>
          </mxGeometry>
        </mxCell>
        <mxCell id="rOw19jKcxJnXFdSq0Atq-24" value="authenticates" style="edgeLabel;html=1;align=center;verticalAlign=middle;resizable=0;points=[];" vertex="1" connectable="0" parent="rOw19jKcxJnXFdSq0Atq-23">
          <mxGeometry x="-0.0158" y="-1" relative="1" as="geometry">
            <mxPoint as="offset" />
          </mxGeometry>
        </mxCell>
        <mxCell id="rOw19jKcxJnXFdSq0Atq-26" value="&lt;div&gt;&lt;b&gt;Data Space Connector&lt;/b&gt;&lt;/div&gt;&lt;div&gt;&lt;br&gt;&lt;/div&gt;&lt;div&gt;&lt;br&gt;&lt;/div&gt;&lt;div&gt;&lt;br&gt;&lt;/div&gt;&lt;div&gt;&lt;br&gt;&lt;/div&gt;&lt;div&gt;&lt;br&gt;&lt;/div&gt;&lt;div&gt;&lt;br&gt;&lt;/div&gt;&lt;div&gt;&lt;br&gt;&lt;/div&gt;&lt;div&gt;&lt;br&gt;&lt;/div&gt;&lt;div&gt;&lt;br&gt;&lt;/div&gt;&lt;div&gt;&lt;br&gt;&lt;/div&gt;&lt;div&gt;&lt;br&gt;&lt;/div&gt;&lt;div&gt;&lt;br&gt;&lt;/div&gt;&lt;div&gt;&lt;br&gt;&lt;/div&gt;&lt;div&gt;&lt;br&gt;&lt;/div&gt;&lt;div&gt;&lt;br&gt;&lt;/div&gt;&lt;div&gt;&lt;br&gt;&lt;/div&gt;&lt;div&gt;&lt;br&gt;&lt;/div&gt;&lt;div&gt;&lt;br&gt;&lt;/div&gt;&lt;div&gt;&lt;br&gt;&lt;/div&gt;" style="rounded=0;whiteSpace=wrap;html=1;fillColor=#FFFEEB;" vertex="1" parent="1">
          <mxGeometry x="-350" y="772.86" width="520" height="307.14" as="geometry" />
        </mxCell>
        <mxCell id="rOw19jKcxJnXFdSq0Atq-27" value="Contract Management" style="rounded=1;whiteSpace=wrap;html=1;" vertex="1" parent="1">
          <mxGeometry x="-310" y="822.86" width="120" height="60" as="geometry" />
        </mxCell>
        <mxCell id="rOw19jKcxJnXFdSq0Atq-29" value="Data Service" style="rounded=1;whiteSpace=wrap;html=1;fillColor=#f8cecc;strokeColor=#b85450;" vertex="1" parent="1">
          <mxGeometry x="10" y="970" width="120" height="60" as="geometry" />
        </mxCell>
        <mxCell id="rOw19jKcxJnXFdSq0Atq-39" value="PEP" style="rounded=1;whiteSpace=wrap;html=1;" vertex="1" parent="1">
          <mxGeometry x="10" y="822.86" width="120" height="60" as="geometry" />
        </mxCell>
        <mxCell id="rOw19jKcxJnXFdSq0Atq-40" value="PDP" style="rounded=1;whiteSpace=wrap;html=1;" vertex="1" parent="1">
          <mxGeometry x="-150" y="970" width="120" height="60" as="geometry" />
        </mxCell>
        <mxCell id="rOw19jKcxJnXFdSq0Atq-41" value="PAP" style="rounded=1;whiteSpace=wrap;html=1;" vertex="1" parent="1">
          <mxGeometry x="-310" y="970" width="120" height="60" as="geometry" />
        </mxCell>
        <mxCell id="rOw19jKcxJnXFdSq0Atq-43" value="" style="endArrow=none;html=1;rounded=0;entryX=0;entryY=0.5;entryDx=0;entryDy=0;exitX=1;exitY=0.5;exitDx=0;exitDy=0;" edge="1" parent="1" source="rOw19jKcxJnXFdSq0Atq-41" target="rOw19jKcxJnXFdSq0Atq-40">
          <mxGeometry width="50" height="50" relative="1" as="geometry">
            <mxPoint x="-500" y="1140" as="sourcePoint" />
            <mxPoint x="-450" y="1090" as="targetPoint" />
          </mxGeometry>
        </mxCell>
        <mxCell id="rOw19jKcxJnXFdSq0Atq-44" value="" style="endArrow=none;html=1;rounded=0;entryX=0;entryY=0.5;entryDx=0;entryDy=0;" edge="1" parent="1" source="rOw19jKcxJnXFdSq0Atq-40" target="rOw19jKcxJnXFdSq0Atq-39">
          <mxGeometry width="50" height="50" relative="1" as="geometry">
            <mxPoint x="-500" y="1130" as="sourcePoint" />
            <mxPoint x="-450" y="1080" as="targetPoint" />
            <Array as="points">
              <mxPoint x="-90" y="853" />
            </Array>
          </mxGeometry>
        </mxCell>
        <mxCell id="rOw19jKcxJnXFdSq0Atq-45" value="" style="endArrow=classic;html=1;rounded=0;exitX=0.5;exitY=1;exitDx=0;exitDy=0;entryX=0.5;entryY=0;entryDx=0;entryDy=0;" edge="1" parent="1" source="rOw19jKcxJnXFdSq0Atq-39" target="rOw19jKcxJnXFdSq0Atq-29">
          <mxGeometry width="50" height="50" relative="1" as="geometry">
            <mxPoint x="150" y="870" as="sourcePoint" />
            <mxPoint x="200" y="820" as="targetPoint" />
            <Array as="points" />
          </mxGeometry>
        </mxCell>
        <mxCell id="rOw19jKcxJnXFdSq0Atq-46" value="" style="endArrow=classic;html=1;rounded=0;exitX=0.5;exitY=1;exitDx=0;exitDy=0;" edge="1" parent="1" source="rOw19jKcxJnXFdSq0Atq-27" target="rOw19jKcxJnXFdSq0Atq-41">
          <mxGeometry width="50" height="50" relative="1" as="geometry">
            <mxPoint x="-450" y="950" as="sourcePoint" />
            <mxPoint x="-400" y="900" as="targetPoint" />
          </mxGeometry>
        </mxCell>
        <mxCell id="rOw19jKcxJnXFdSq0Atq-47" value="register policy" style="edgeLabel;html=1;align=center;verticalAlign=middle;resizable=0;points=[];" vertex="1" connectable="0" parent="rOw19jKcxJnXFdSq0Atq-46">
          <mxGeometry x="-0.0099" relative="1" as="geometry">
            <mxPoint as="offset" />
          </mxGeometry>
        </mxCell>
        <mxCell id="rOw19jKcxJnXFdSq0Atq-58" value="&lt;div&gt;ProductOrder&lt;/div&gt;&lt;div&gt;Event&lt;/div&gt;" style="rounded=0;whiteSpace=wrap;html=1;" vertex="1" parent="1">
          <mxGeometry x="-360" y="690" width="90" height="50" as="geometry" />
        </mxCell>
        <mxCell id="rOw19jKcxJnXFdSq0Atq-59" value="" style="endArrow=none;dashed=1;html=1;dashPattern=1 3;strokeWidth=2;rounded=0;entryX=1;entryY=0.5;entryDx=0;entryDy=0;" edge="1" parent="1" source="rOw19jKcxJnXFdSq0Atq-62" target="rOw19jKcxJnXFdSq0Atq-58">
          <mxGeometry width="50" height="50" relative="1" as="geometry">
            <mxPoint x="-140" y="740" as="sourcePoint" />
            <mxPoint x="-140" y="740" as="targetPoint" />
          </mxGeometry>
        </mxCell>
        <mxCell id="rOw19jKcxJnXFdSq0Atq-62" value="Policy" style="sketch=0;pointerEvents=1;shadow=0;dashed=0;html=1;strokeColor=none;fillColor=#505050;labelPosition=center;verticalLabelPosition=bottom;verticalAlign=top;outlineConnect=0;align=center;shape=mxgraph.office.concepts.document_blank;" vertex="1" parent="1">
          <mxGeometry x="-230" y="691.5" width="40" height="47" as="geometry" />
        </mxCell>
        <mxCell id="rOw19jKcxJnXFdSq0Atq-63" value="Access Node" style="rounded=1;whiteSpace=wrap;html=1;fillColor=#d5e8d4;strokeColor=#82b366;" vertex="1" parent="1">
          <mxGeometry x="-310" y="600" width="120" height="60" as="geometry" />
        </mxCell>
        <mxCell id="rOw19jKcxJnXFdSq0Atq-64" value="" style="endArrow=classic;html=1;rounded=0;exitX=0.5;exitY=1;exitDx=0;exitDy=0;" edge="1" parent="1" source="rOw19jKcxJnXFdSq0Atq-63" target="rOw19jKcxJnXFdSq0Atq-27">
          <mxGeometry width="50" height="50" relative="1" as="geometry">
            <mxPoint x="-250" y="680" as="sourcePoint" />
            <mxPoint x="-430" y="730" as="targetPoint" />
          </mxGeometry>
        </mxCell>
        <mxCell id="rOw19jKcxJnXFdSq0Atq-66" value="Consumer" style="shape=umlActor;verticalLabelPosition=bottom;verticalAlign=top;html=1;outlineConnect=0;" vertex="1" parent="1">
          <mxGeometry x="55" y="600" width="30" height="60" as="geometry" />
        </mxCell>
        <mxCell id="rOw19jKcxJnXFdSq0Atq-67" value="" style="endArrow=classic;html=1;rounded=0;" edge="1" parent="1" source="rOw19jKcxJnXFdSq0Atq-66" target="rOw19jKcxJnXFdSq0Atq-39">
          <mxGeometry width="50" height="50" relative="1" as="geometry">
            <mxPoint x="240" y="1000" as="sourcePoint" />
            <mxPoint x="290" y="950" as="targetPoint" />
          </mxGeometry>
        </mxCell>
      </root>
    </mxGraphModel>
  </diagram>
</mxfile>
